<svg height="597pt" viewBox="-104 -19 597 597.33316" width="597pt" xmlns="http://www.w3.org/2000/svg"><path d="m373.59375 482.316406c-18.375.148438-33.390625-14.632812-33.535156-33.007812-.148438-18.375 14.632812-33.394532 33.007812-33.539063h.5c5.523438-.011719 9.996094-4.496093 9.996094-10.023437v-395.75c0-5.519532-4.476562-9.996094-9.996094-9.996094h-325.722656c-29.457031.0351562-53.324219 23.902344-53.355469 53.359375v395.695313c.035157 29.398437 23.855469 53.21875 53.253907 53.25h13.648437v47.699218c0 3.464844 1.796875 6.683594 4.738281 8.503906 2.949219 1.820313 6.628906 1.984376 9.726563.4375l42.886719-21.417968 42.882812 21.417968c3.097656 1.546876 6.777344 1.382813 9.726562-.4375 2.941407-1.820312 4.738282-5.039062 4.738282-8.503906v-47.699218h197.503906c5.523438 0 10-4.476563 10-9.996094 0-5.519532-4.476562-9.996094-10-9.996094zm-351.691406-79.828125c-.621094.339844-1.210938.730469-1.816406 1.101563-1.289063.792968-2.542969 1.621094-3.753907 2.5-.613281.449218-1.25.878906-1.839843 1.355468v-238.066406c.019531-18.414062 14.945312-33.34375 33.363281-33.363281h315.738281v259.730469h-315.847656c-1.242188 0-2.46875.109375-3.695313.1875-.351562 0-.707031 0-1.058593.050781-1.0625.097656-2.101563.257813-3.144532.410156-.589844.09375-1.179687.167969-1.765625.273438-1 .179687-1.9375.40625-2.902343.640625-.625.144531-1.246094.300781-1.863282.496094-.921875.261718-1.828125.542968-2.730468.851562-.625.214844-1.242188.441406-1.855469.675781-.871094.339844-1.738281.679688-2.582031 1.054688-.617188.273437-1.214844.578125-1.820313.878906-.816406.386719-1.640625.777344-2.425781 1.222656zm341.691406-286.464843h-315.75c-12.132812-.015626-23.910156 4.136718-33.363281 11.75v-16.367188c.019531-18.417969 14.949219-33.34375 33.363281-33.363281h315.75zm-315.75-96.03125h315.75v38.058593h-315.75c-12.140625-.003906-23.917969 4.152344-33.363281 11.777344v-16.492187c.035156-18.40625 14.957031-33.320313 33.363281-33.34375zm-.101562 462.339843c-18.378907 0-33.273438-14.898437-33.273438-33.273437 0-18.378906 14.894531-33.273438 33.273438-33.273438h284.289062c-5.421875 6.773438-9.101562 14.769532-10.722656 23.289063h-273.191406c-5.519532 0-9.996094 4.476562-9.996094 10 0 5.519531 4.476562 9.996093 9.996094 9.996093h13.277343v23.261719zm108.351562 51.523438-32.890625-16.417969c-2.8125-1.40625-6.121094-1.40625-8.933594 0l-32.886719 16.417969v-74.804688h74.710938zm19.992188-51.523438v-23.28125h145.222656c1.621094 8.511719 5.300781 16.5 10.722656 23.261719zm0 0"/><path d="m143.738281 273.941406-7.273437 42.398438c-.636719 3.75.898437 7.53125 3.972656 9.765625 3.078125 2.238281 7.152344 2.535156 10.519531.773437l38.074219-19.992187 38.070312 19.992187c3.371094 1.761719 7.445313 1.464844 10.519532-.773437 3.074218-2.234375 4.617187-6.019531 3.972656-9.769531l-7.265625-42.394532 30.792969-30.023437c2.726562-2.652344 3.707031-6.628907 2.53125-10.246094-1.171875-3.613281-4.300782-6.25-8.066406-6.800781l-42.550782-6.1875-19.039062-38.574219c-1.683594-3.410156-5.15625-5.570313-8.960938-5.570313-3.808594 0-7.28125 2.160157-8.964844 5.570313l-19.019531 38.574219-42.578125 6.1875c-3.761718.550781-6.890625 3.1875-8.0625 6.800781-1.175781 3.617187-.195312 7.59375 2.527344 10.246094zm25.378907-34.230468c3.257812-.472657 6.070312-2.519532 7.53125-5.464844l12.390624-25.121094 12.394532 25.125c1.453125 2.953125 4.269531 4.992188 7.53125 5.464844l27.71875 4.027344-20.058594 19.554687c-2.359375 2.300781-3.4375 5.609375-2.875 8.855469l4.734375 27.601562-24.796875-13.039062c-2.910156-1.53125-6.390625-1.53125-9.296875 0l-24.792969 13.03125 4.730469-27.605469c.554687-3.246094-.519531-6.550781-2.871094-8.847656l-20.0625-19.554688zm0 0"/></svg>